# xmcd
#
# Track frame offsets:
#	150
#	12859
#	26214
#	37856
#	49831
#	69186
#	83116
#	94619
#	109146
#	127185
#	139228
#	156609
#	171490
#	186167
#	204555
#	229880
#	242520
#	258713
#	273140
#	294485
#	305667
#	317713
#	330915
#	342867
#
# Disc length: 4765 seconds
#
# Revision: 0
# Processed by: cddbd v1.5.2PL0 Copyright (c) Steve Scherf et al.
# Submitted via: EasyCDDAExtractor 15.2.5.1
#
DISCID=5e129b18
DTITLE=Johnny Cash - Life
DYEAR=2004
DGENRE=Country
TTITLE0=Folks Out On The Road
TTITLE1=I'm Never Gonna Roam Again
TTITLE2=American By Birth
TTITLE3=Fields Of Diamonds
TTITLE4=Heroes
TTITLE5=Even Cowgirls Get The Blues 
TTITLE6=Love Is The Way
TTITLE7=The Ballad Of Forty Dollars
TTITLE8=I'll Always Love You In My Own Crazy Way
TTITLE9=One Too Many Mornings
TTITLE10=Daddy, Who's Gene Autry
TTITLE11=Ain't Gonna Hobo no More
TTITLE12=The Last Cowboy Song
TTITLE13=Thoughts On The Flag
TTITLE14=The Man In White
TTITLE15=Any Old Wind
TTITLE16=The Greatest Cowboy Of Them All
TTITLE17=I'll Go Somewhere And Sing My Song Again
TTITLE18=The Wanderer
TTITLE19=Come Along And Ride This Train 
TTITLE20=Big Foot
TTITLE21=This Land Is Your Land
TTITLE22=What Is Truth
TTITLE23=I Am The Nation
EXTD=
EXTT0=
EXTT1=
EXTT2=
EXTT3=
EXTT4=
EXTT5=
EXTT6=
EXTT7=
EXTT8=
EXTT9=
EXTT10=
EXTT11=
EXTT12=
EXTT13=
EXTT14=
EXTT15=
EXTT16=
EXTT17=
EXTT18=
EXTT19=
EXTT20=
EXTT21=
EXTT22=
EXTT23=
PLAYORDER=
